<?xml version="1.0" standalone="no"?> <!DOCTYPE svg PUBLIC "-//W3C//DTD SVG 20010904//EN" "http://www.w3.org/TR/2001/REC-SVG-20010904/DTD/svg10.dtd"> <svg version="1.0" xmlns="http://www.w3.org/2000/svg" width="1800.000000pt" height="1803.000000pt" viewBox="0 0 1800.000000 1803.000000" preserveAspectRatio="xMidYMid meet"> <g transform="translate(0.000000,1803.000000) scale(0.100000,-0.100000)" fill="#ff0000" stroke="none"> <path d="M8753 17878 c-4 -7 -74 -143 -154 -303 -248 -489 -510 -1008 -894 -1765 -373 -736 -663 -1310 -1077 -2130 -268 -530 -610 -1208 -953 -1885 -134 -264 -338 -668 -454 -899 -117 -230 -279 -549 -361 -710 -81 -160 -221 -435 -310 -611 -89 -176 -264 -522 -390 -770 -125 -247 -349 -691 -498 -985 -149 -294 -503 -994 -787 -1555 -284 -561 -625 -1236 -758 -1499 -133 -264 -292 -579 -354 -700 -62 -122 -112 -228 -112 -237 -1 -15 -99 -212 -523 -1049 -130 -256 -350 -692 -491 -970 -140 -278 -310 -611 -376 -740 -66 -129 -121 -241 -121 -248 0 -20 26 -25 52 -11 28 16 180 79 190 79 4 0 31 11 60 24 29 13 121 51 203 84 375 149 914 367 1020 413 11 5 65 26 120 48 143 55 751 301 908 365 72 30 211 86 307 124 96 38 292 117 435 175 143 58 411 166 596 240 184 75 398 161 475 192 76 32 256 104 399 162 143 58 343 139 445 180 102 41 201 81 220 88 19 8 87 35 150 60 63 26 158 64 210 85 124 49 349 141 453 184 45 19 174 71 287 116 113 44 214 84 225 89 27 11 52 22 240 98 155 63 431 173 468 186 11 4 21 16 24 26 5 19 27 31 153 80 144 55 435 172 475 190 22 10 139 58 260 106 121 48 261 104 310 125 50 21 124 52 165 68 132 54 334 134 380 152 25 9 101 41 170 69 171 71 245 101 385 156 66 25 127 50 136 55 22 12 358 147 531 214 38 14 76 30 85 35 19 10 191 80 398 161 66 26 149 59 185 75 36 15 178 72 315 127 327 129 324 128 331 150 3 10 -4 51 -15 91 -11 39 -52 198 -91 352 -38 154 -115 458 -171 675 -55 217 -106 415 -111 440 -6 24 -39 157 -75 295 -91 359 -206 808 -328 1290 -105 417 -153 603 -301 1180 -42 165 -80 316 -84 335 -12 53 -192 760 -248 975 -27 105 -59 231 -71 280 -12 50 -28 115 -37 145 -8 30 -64 251 -125 490 -61 239 -140 550 -175 690 -36 140 -103 404 -149 585 -94 371 -121 474 -135 525 -6 19 -35 134 -65 255 -30 121 -66 263 -80 315 -14 52 -49 192 -79 310 -30 118 -92 366 -139 550 -47 184 -120 470 -162 635 -42 165 -86 334 -97 375 -11 41 -24 91 -28 110 -4 19 -13 55 -19 80 -28 102 -34 127 -41 160 -4 19 -17 71 -29 115 -13 44 -26 98 -30 120 -5 22 -23 94 -40 160 -18 66 -64 244 -102 395 -94 371 -102 395 -126 358z"/> <path d="M10100 16633 c0 -7 19 -88 55 -233 7 -30 23 -91 35 -135 12 -44 26 -96 30 -115 15 -71 121 -488 145 -575 14 -49 59 -225 100 -390 86 -339 273 -1078 495 -1950 51 -198 129 -508 175 -690 46 -181 124 -487 173 -680 122 -477 286 -1124 432 -1700 67 -264 135 -532 151 -595 29 -111 116 -453 259 -1015 140 -553 222 -875 266 -1045 25 -96 70 -274 100 -395 47 -192 67 -271 116 -450 6 -22 16 -65 23 -95 7 -30 38 -154 69 -275 32 -121 86 -335 121 -475 l65 -255 52 -46 c45 -39 408 -354 488 -422 14 -12 50 -42 80 -66 30 -25 96 -81 146 -125 50 -45 111 -97 135 -116 23 -19 113 -96 200 -170 315 -270 404 -347 503 -429 98 -82 266 -227 353 -305 24 -21 43 -44 43 -51 0 -7 24 -33 53 -58 123 -107 277 -238 376 -321 58 -48 124 -105 147 -125 22 -20 96 -83 164 -141 67 -58 191 -164 274 -235 83 -72 176 -150 206 -175 30 -24 105 -88 165 -140 61 -53 164 -142 230 -197 120 -101 240 -203 390 -332 114 -99 302 -258 365 -311 29 -25 97 -83 149 -129 53 -46 116 -100 141 -120 25 -20 91 -76 148 -125 62 -53 107 -85 112 -80 6 6 -73 173 -195 414 -112 223 -318 630 -456 905 -138 275 -255 505 -261 512 -18 23 -328 654 -328 669 0 8 -59 130 -130 270 -72 140 -225 442 -341 672 -116 229 -323 640 -461 912 -498 983 -756 1494 -998 1975 -135 270 -253 501 -262 515 -8 14 -152 295 -318 625 -326 648 -546 1083 -951 1880 -142 281 -352 697 -467 925 -115 228 -270 534 -345 680 -195 384 -541 1066 -763 1510 -107 212 -316 626 -465 920 -149 294 -371 733 -493 975 -259 512 -436 856 -462 902 -18 31 -34 43 -34 26z"/> <path d="M12290 4700 c-36 -16 -108 -45 -160 -66 -52 -20 -131 -52 -175 -71 -44 -19 -125 -52 -180 -73 -55 -21 -172 -69 -260 -105 -88 -36 -189 -78 -225 -92 -36 -14 -85 -33 -110 -43 -25 -10 -139 -56 -255 -103 -115 -47 -325 -131 -465 -187 -140 -56 -259 -107 -265 -112 -5 -5 -10 -14 -10 -20 0 -7 -61 -36 -135 -65 -74 -30 -166 -67 -205 -83 -38 -16 -115 -47 -170 -69 -55 -22 -134 -54 -175 -71 -41 -17 -91 -37 -110 -44 -19 -8 -143 -57 -275 -111 -132 -53 -278 -112 -325 -130 -47 -18 -110 -44 -140 -58 -30 -14 -99 -41 -153 -61 -54 -20 -121 -47 -150 -60 -53 -24 -163 -68 -437 -176 -85 -33 -163 -65 -173 -71 -18 -10 -188 -79 -357 -144 -47 -19 -137 -55 -200 -80 -63 -26 -230 -93 -370 -150 -287 -116 -513 -208 -550 -224 -14 -6 -77 -31 -140 -55 -63 -24 -173 -69 -245 -99 -71 -30 -213 -87 -315 -127 -177 -70 -453 -181 -495 -200 -11 -5 -42 -18 -70 -29 -138 -55 -482 -193 -965 -388 -294 -119 -551 -222 -570 -229 -19 -7 -71 -28 -115 -47 -44 -19 -123 -51 -175 -71 -52 -21 -126 -50 -165 -66 -38 -16 -108 -45 -155 -63 -47 -19 -141 -58 -210 -87 -117 -48 -170 -69 -230 -90 -14 -4 -97 -38 -185 -75 -88 -37 -205 -84 -260 -106 -121 -48 -260 -104 -415 -169 -63 -26 -178 -73 -255 -103 -189 -75 -235 -96 -235 -107 0 -7 3061 -10 8345 -10 7995 0 8345 1 8345 18 0 10 -20 33 -44 52 -50 40 -279 233 -316 266 -55 50 -290 253 -364 314 -43 36 -140 118 -215 184 -75 65 -156 135 -181 155 -25 20 -137 115 -250 212 -298 254 -825 705 -895 763 -33 28 -62 54 -65 58 -3 4 -22 20 -42 35 -19 16 -91 76 -159 135 -225 194 -753 644 -853 728 -73 61 -391 333 -591 505 -89 77 -201 172 -248 210 -47 39 -86 77 -86 86 -1 15 -134 137 -276 254 -64 53 -119 99 -180 155 -28 25 -62 54 -75 65 -68 56 -237 199 -335 285 -182 158 -178 157 -285 110z"/> </g> </svg>